<?xml version="1.0" encoding="UTF-8" standalone="no"?>
<!-- Created with Inkscape (http://www.inkscape.org/) -->

<svg
   xmlns:dc="http://purl.org/dc/elements/1.1/"
   xmlns:cc="http://creativecommons.org/ns#"
   xmlns:rdf="http://www.w3.org/1999/02/22-rdf-syntax-ns#"
   xmlns:svg="http://www.w3.org/2000/svg"
   xmlns="http://www.w3.org/2000/svg"
   xmlns:sodipodi="http://sodipodi.sourceforge.net/DTD/sodipodi-0.dtd"
   xmlns:inkscape="http://www.inkscape.org/namespaces/inkscape"
   width="744.09448819"
   height="1052.3622047"
   id="svg2"
   version="1.1"
   inkscape:version="0.48.2 r9819"
   inkscape:export-filename="C:\Users\Brendan\Documents\Code\FPIAH\fpiah-guides\wp7\images\store.png"
   inkscape:export-xdpi="48.441181"
   inkscape:export-ydpi="48.441181"
   sodipodi:docname="store.svg">
  <defs
     id="defs4" />
  <sodipodi:namedview
     id="base"
     pagecolor="#ffffff"
     bordercolor="#666666"
     borderopacity="1.0"
     inkscape:pageopacity="0.0"
     inkscape:pageshadow="2"
     inkscape:zoom="3.959798"
     inkscape:cx="451.31805"
     inkscape:cy="863.39604"
     inkscape:document-units="px"
     inkscape:current-layer="layer1"
     showgrid="false"
     inkscape:window-width="1157"
     inkscape:window-height="638"
     inkscape:window-x="50"
     inkscape:window-y="50"
     inkscape:window-maximized="0" />
  <metadata
     id="metadata7">
    <rdf:RDF>
      <cc:Work
         rdf:about="">
        <dc:format>image/svg+xml</dc:format>
        <dc:type
           rdf:resource="http://purl.org/dc/dcmitype/StillImage" />
        <dc:title></dc:title>
      </cc:Work>
    </rdf:RDF>
  </metadata>
  <g
     inkscape:label="Layer 1"
     inkscape:groupmode="layer"
     id="layer1">
    <rect
       style="fill:#333333;fill-opacity:1;stroke:#292929;stroke-width:2;stroke-miterlimit:4;stroke-opacity:1;stroke-dasharray:none;stroke-dashoffset:0"
       id="rect2996"
       width="948.55737"
       height="117.86971"
       x="-268.48367"
       y="134.7218" />
    <path
       style="fill:#ffffff;stroke:#ffffff;stroke-width:2;stroke-linecap:butt;stroke-linejoin:miter;stroke-opacity:1;stroke-miterlimit:4;stroke-dasharray:none"
       d="m 378.68093,173.02439 0,45.33059 59.85154,12.75318 14.39468,-4.04061 0,-62.12438 -12.12183,-4.29315 z"
       id="path3024"
       inkscape:connector-curvature="0"
       sodipodi:nodetypes="ccccccc" />
    <text
       xml:space="preserve"
       style="font-size:28px;font-style:normal;font-variant:normal;font-weight:normal;font-stretch:normal;line-height:125%;letter-spacing:0px;word-spacing:0px;fill:#000000;fill-opacity:1;stroke:none;font-family:Segoe UI;-inkscape-font-specification:Segoe UI"
       x="-222.06262"
       y="204.4184"
       id="text2998"
       sodipodi:linespacing="125%"><tspan
         sodipodi:role="line"
         id="tspan3000"
         x="-222.06262"
         y="204.4184"
         style="font-size:36px;fill:#ffffff">download the offline mobile version</tspan></text>
    <path
       style="fill:#333333;fill-opacity:1;stroke:#333333;stroke-width:2;stroke-miterlimit:4;stroke-opacity:1;stroke-dashoffset:0;stroke-dasharray:none"
       d="m 392.57053,183.00775 32.19862,-3.80431 0,31.0622 -32.19862,-4.40318 z"
       id="rect3026"
       inkscape:connector-curvature="0"
       sodipodi:nodetypes="ccccc" />
    <path
       style="fill:#ffffff;stroke:#ffffff;stroke-width:2;stroke-linecap:butt;stroke-linejoin:miter;stroke-opacity:1;stroke-miterlimit:4;stroke-dasharray:none"
       d="m 407.21774,175.29723 0,37.24938"
       id="path3029"
       inkscape:connector-curvature="0"
       sodipodi:nodetypes="cc" />
    <path
       style="fill:#ffffff;stroke:#ffffff;stroke-width:2;stroke-linecap:butt;stroke-linejoin:miter;stroke-opacity:1;stroke-miterlimit:4;stroke-dasharray:none"
       d="m 388.90873,194.99521 38.3858,0"
       id="path3031"
       inkscape:connector-curvature="0"
       sodipodi:nodetypes="cc" />
    <path
       style="font-size:medium;font-style:normal;font-variant:normal;font-weight:normal;font-stretch:normal;text-indent:0;text-align:start;text-decoration:none;line-height:normal;letter-spacing:normal;word-spacing:normal;text-transform:none;direction:ltr;block-progression:tb;writing-mode:lr-tb;text-anchor:start;baseline-shift:baseline;color:#000000;fill:#ffffff;fill-opacity:1;stroke:none;stroke-width:1.79754019;marker:none;visibility:visible;display:inline;overflow:visible;enable-background:accumulate;font-family:Sans;-inkscape-font-specification:Sans"
       d="m 421.65625,149.96875 c -1.14786,-0.0445 -2.37117,2e-5 -3.59375,0.15625 -2.44515,0.31246 -4.91256,1.04867 -6.84375,2.40625 -1.93119,1.35758 -3.28125,3.43992 -3.28125,6.125 l 0,6.15179 1.78125,-0.40179 0,-5.75 c 0,-2.09831 0.98044,-3.54411 2.5625,-4.65625 1.58206,-1.11214 3.79207,-1.80761 6.03125,-2.09375 2.23918,-0.28614 4.50676,-0.16355 6.125,0.21875 0.80912,0.19115 1.44,0.46823 1.8125,0.71875 0.3725,0.25052 0.40625,0.36989 0.40625,0.4375 l 0,7.60714 1.8125,-0.35714 0,-7.25 c 0,-0.84039 -0.56655,-1.49886 -1.21875,-1.9375 -0.6522,-0.43864 -1.45874,-0.74491 -2.40625,-0.96875 -0.94751,-0.22384 -2.03964,-0.36173 -3.1875,-0.40625 z"
       id="path3033-6"
       inkscape:connector-curvature="0"
       sodipodi:nodetypes="csssccssssssccsssc" />
    <rect
       style="fill:#292929;fill-opacity:1;stroke:#292929;stroke-width:1.8791163;stroke-miterlimit:4;stroke-opacity:1;stroke-dasharray:none;stroke-dashoffset:0"
       id="rect3871"
       width="2.8145285"
       height="3.4408321"
       x="416.3988"
       y="149.22267" />
    <path
       style="font-size:medium;font-style:normal;font-variant:normal;font-weight:normal;font-stretch:normal;text-indent:0;text-align:start;text-decoration:none;line-height:normal;letter-spacing:normal;word-spacing:normal;text-transform:none;direction:ltr;block-progression:tb;writing-mode:lr-tb;text-anchor:start;baseline-shift:baseline;color:#000000;fill:#ffffff;fill-opacity:1;stroke:none;stroke-width:2;marker:none;visibility:visible;display:inline;overflow:visible;enable-background:accumulate;font-family:Sans;-inkscape-font-specification:Sans"
       d="m 407.25,144.21875 c -2.78258,0.059 -5.58808,0.5708 -7.8125,1.875 -2.22442,1.3042 -3.8125,3.52127 -3.8125,6.53125 l 0,14.68304 2,-0.40179 0,-14.28125 c 0,-2.34593 1.03577,-3.77078 2.8125,-4.8125 1.77673,-1.04172 4.32271,-1.5396 6.875,-1.59375 2.55229,-0.0541 5.13869,0.34432 7,0.96875 0.93065,0.31222 1.67542,0.65741 2.125,1 0.44958,0.34259 0.5,0.59117 0.5,0.65625 l 0,13.77678 2,-0.40178 0,-13.375 c 0,-0.94519 -0.59507,-1.67205 -1.3125,-2.21875 -0.71743,-0.5467 -1.61758,-0.98481 -2.6875,-1.34375 -2.13984,-0.71788 -4.90492,-1.12153 -7.6875,-1.0625 z"
       id="path3033"
       inkscape:connector-curvature="0"
       sodipodi:nodetypes="cssccsscsssccsssc" />
    <text
       xml:space="preserve"
       style="font-size:28px;font-style:normal;font-variant:normal;font-weight:normal;font-stretch:normal;line-height:125%;letter-spacing:0px;word-spacing:0px;fill:#000000;fill-opacity:1;stroke:none;font-family:Segoe UI;-inkscape-font-specification:Segoe UI"
       x="471.74127"
       y="187.59039"
       id="text3873"
       sodipodi:linespacing="125%"><tspan
         sodipodi:role="line"
         x="471.74127"
         y="187.59039"
         id="tspan3877"
         style="font-size:36px;fill:#ffffff">Windows</tspan></text>
    <text
       xml:space="preserve"
       style="font-size:28px;font-style:normal;font-variant:normal;font-weight:normal;font-stretch:normal;line-height:125%;letter-spacing:0px;word-spacing:0px;fill:#000000;fill-opacity:1;stroke:none;font-family:Segoe UI;-inkscape-font-specification:Segoe UI"
       x="473.7616"
       y="222.94571"
       id="text3881"
       sodipodi:linespacing="125%"><tspan
         sodipodi:role="line"
         id="tspan3883"
         x="473.7616"
         y="222.94571"
         style="font-size:36px;fill:#ffffff">Phone</tspan></text>
  </g>
</svg>
